<svg xmlns="http://www.w3.org/2000/svg" viewBox="0 0 40 40" width="40" height="40">
  <circle cx="20" cy="20" r="20" fill="#101010"/>
  <!-- Threads "@" style logo -->
  <path d="M24.8 18.6c-0.2-0.1-0.4-0.2-0.6-0.3c-0.3-2.2-1.7-3.5-4-3.5c-1.4 0-2.6 0.6-3.3 1.7l1.4 0.9c0.5-0.7 1.2-1.1 2-1.1c1.4 0 2.2 0.8 2.4 2.1c-0.6-0.1-1.3-0.1-2-0.1c-2.1 0-3.5 1-3.5 2.7c0 1.7 1.4 2.7 3.3 2.7c1.4 0 2.5-0.5 3.2-1.5c0.5 0.5 0.8 1.1 0.8 1.8c0 1.8-1.8 3-4.1 3c-3.2 0-5.4-2-5.4-5.1c0-3.2 2.2-5.3 5.5-5.3c0.8 0 1.6 0.1 2.2 0.3c0 0 0 0 0 0c0.3-0.4 0.6-0.7 1-1c-0.9-0.4-2-0.7-3.2-0.7c-4 0-7.1 2.7-7.1 6.7c0 4 2.9 6.6 7 6.6c3.2 0 5.7-1.9 5.7-4.6C26 20.6 25.6 19.4 24.8 18.6zM20.3 22.8c-0.9 0-1.7-0.4-1.7-1.2c0-0.8 0.7-1.2 1.8-1.2c0.7 0 1.4 0.1 2 0.2C22.1 22 21.4 22.8 20.3 22.8z" fill="white"/>
</svg>
